#!OML:ASF H:\Male1\Project 1\Capture day 1\Session 1\Male1.ASF
:FULLY-SPECIFIED
:DEGREES
1200
root 17.1112 15.3644 1.97687 -4.1232 7.40914 -0.799111
lowerback 7.22644 0.800447 -0.323593
upperback 4.70381 1.05662 -0.46177
thorax 0.803612 0.53314 -0.360347
lowerneck -7.18452 2.80982 5.54415
upperneck 0.645243 3.34827 -2.7142
head 1.5912 1.63795 -1.69652
rclavicle -6.06293e-015 1.19271e-015
rhumerus -36.2932 17.4656 -88.5057
rradius 43.255
rwrist -23.8782
rhand -16.2572 3.79643
rfingers 7.12502
rthumb 9.952 -25.9483
lclavicle -6.06293e-015 1.19271e-015
lhumerus -32.4767 -3.18902 83.5884
lradius 26.0373
lwrist -10.752
lhand -8.12155 10.3463
lfingers 7.12502
lthumb 17.7919 39.5524
rfemur -3.4814 17.9378 22.0853
rtibia 23.8801
rfoot -23.8709 -26.527
rtoes -28.5262
lfemur 0.64148 -15.9884 -19.8306
ltibia 24.1096
lfoot -25.3835 26.48
ltoes -6.33268
1201
root 17.1222 15.3643 1.98253 -4.2441 7.28549 -0.854736
lowerback 7.18499 0.839859 -0.391092
upperback 4.72919 1.10563 -0.497331
thorax 0.852434 0.556667 -0.36126
lowerneck -7.20998 2.78797 5.55518
upperneck 0.778764 3.31232 -2.54398
head 1.63333 1.62485 -1.64421
rclavicle 5.06901e-015 -5.1684e-015
rhumerus -36.2099 17.6763 -88.7552
rradius 43.4176
rwrist -23.9482
rhand -16.8632 3.42399
rfingers 7.12502
rthumb 9.36738 -26.3479
lclavicle 5.06901e-015 -5.1684e-015
lhumerus -32.8027 -1.09048 82.3194
lradius 24.511
lwrist -12.9634
lhand -7.37221 10.231
lfingers 7.12502
lthumb 18.5128 39.37
rfemur -3.37518 17.9366 22.1552
rtibia 23.9706
rfoot -23.8839 -26.5159
rtoes -28.1463
lfemur 0.877496 -16.0092 -19.8779
ltibia 24.0085
lfoot -25.4184 26.3405
ltoes -5.2441
1202
root 17.1309 15.3656 1.98714 -4.25784 7.16086 -0.782004
lowerback 7.08845 0.87908 -0.710047
upperback 4.7137 1.14055 -0.489879
thorax 0.883676 0.566908 -0.175593
lowerneck -7.13309 2.80169 5.46673
upperneck 0.829913 3.33932 -2.43042
head 1.63218 1.64127 -1.59101
rclavicle -3.21534e-014 5.56597e-015
rhumerus -36.0984 17.6882 -88.7528
rradius 43.3236
rwrist -23.3802
rhand -16.6616 3.81823
rfingers 7.12502
rthumb 9.56181 -25.9448
lclavicle -3.21534e-014 5.56597e-015
lhumerus -33.226 1.27614 80.9506
lradius 23.2513
lwrist -14.5363
lhand -7.02588 10.3108
lfingers 7.12502
lthumb 18.8459 39.4179
rfemur -3.36859 18.0671 22.0828
rtibia 24.051
rfoot -23.7856 -26.5045
rtoes -28.1211
lfemur 0.970542 -15.9191 -19.9936
ltibia 23.9268
lfoot -25.2381 26.3442
ltoes -4.80927
1203
root 17.1409 15.362 1.98973 -4.26624 7.08209 -0.638461
lowerback 7.01304 0.924919 -1.05955
upperback 4.69546 1.18297 -0.491174
thorax 0.899793 0.580398 0.01737
lowerneck -7.10875 2.79574 5.32235
upperneck 0.979275 3.34194 -2.30779
head 1.66977 1.64606 -1.52559
rclavicle -3.41413e-014 1.35174e-014
rhumerus -36.1143 17.7265 -88.6866
rradius 43.3745
rwrist -23.1287
rhand -16.2466 3.86242
rfingers 7.12502
rthumb 9.96222 -25.8818
lclavicle -3.41413e-014 1.35174e-014
lhumerus -33.6966 3.70816 79.4978
lradius 22.2109
lwrist -15.5906
lhand -7.40344 10.7605
lfingers 7.12502
lthumb 18.4828 39.9025
rfemur -3.35717 18.3503 21.9563
rtibia 24.1158
rfoot -23.5763 -26.6483
rtoes -28.5632
lfemur 1.08829 -16.0257 -20.2473
ltibia 23.841
lfoot -25.0663 26.7808
ltoes -4.93292
1204
root 17.1518 15.3584 1.99384 -4.2879 7.04308 -0.589961
lowerback 6.95114 0.979989 -1.2363
upperback 4.65444 1.24705 -0.528759
thorax 0.888436 0.609217 0.0745104
lowerneck -7.01925 2.76618 5.3564
upperneck 1.11284 3.30624 -2.34263
head 1.6977 1.62939 -1.54505
rclavicle 1.94312e-014 3.57812e-015
rhumerus -36.1923 17.6224 -88.7305
rradius 43.397
rwrist -23.1504
rhand -16.1561 3.29561
rfingers 7.12502
rthumb 10.0496 -26.4444
lclavicle 1.94312e-014 3.57812e-015
lhumerus -34.2026 5.92069 77.9602
lradius 21.3665
lwrist -15.9382
lhand -8.11309 11.1805
lfingers 7.12502
lthumb 17.8 40.3858
rfemur -3.37099 18.5677 21.9249
rtibia 24.2033
rfoot -23.3521 -27.0481
rtoes -29.0303
lfemur 1.2438 -16.195 -20.4319
ltibia 23.7059
lfoot -24.7782 27.3506
ltoes -5.69507
1205
root 17.1629 15.3608 1.99988 -4.24341 7.09643 -0.609057
lowerback 6.87339 0.958309 -1.36918
upperback 4.53954 1.21074 -0.540805
thorax 0.810719 0.58894 0.138967
lowerneck -6.86975 2.77402 5.38151
upperneck 1.25571 3.32659 -2.43604
head 1.72158 1.63971 -1.58025
rclavicle -5.01931e-015 1.03368e-014
rhumerus -36.2808 17.5421 -88.8139
rradius 43.1983
rwrist -23.2241
rhand -16.1528 2.90313
rfingers 7.12502
rthumb 10.0527 -26.8368
lclavicle -5.01931e-015 1.03368e-014
lhumerus -34.8507 8.27438 76.2797
lradius 20.7591
lwrist -15.9812
lhand -8.57136 11.4605
lfingers 7.12502
lthumb 17.359 40.7053
rfemur -3.43538 18.6676 21.9219
rtibia 24.2885
rfoot -23.3536 -27.3106
rtoes -28.3201
lfemur 1.31426 -16.2678 -20.4953
ltibia 23.5266
lfoot -24.8368 27.4747
ltoes -5.21529
1206
root 17.1732 15.364 2.00563 -4.16431 7.27416 -0.513973
lowerback 6.77463 0.873021 -1.57413
upperback 4.4242 1.08663 -0.610267
thorax 0.745611 0.524176 0.190476
lowerneck -6.88484 2.8034 5.31523
upperneck 1.55548 3.36824 -2.33026
head 1.81954 1.66521 -1.53224
rclavicle 8.79622e-015 -1.59028e-015
rhumerus -36.4561 17.6001 -88.9478
rradius 43.1184
rwrist -23.3602
rhand -16.1652 2.4419
rfingers 7.12502
rthumb 10.0407 -27.2986
lclavicle 8.79622e-015 -1.59028e-015
lhumerus -35.5324 10.4963 74.5637
lradius 20.425
lwrist -15.7672
lhand -9.09696 11.7701
lfingers 7.12502
lthumb 16.8531 41.0588
rfemur -3.422 18.8603 21.7993
rtibia 24.3087
rfoot -23.8725 -27.024
rtoes -25.2648
lfemur 1.36911 -16.5255 -20.712
ltibia 23.3471
lfoot -25.4512 27.3655
ltoes -3.16145
